<svg xmlns="http://www.w3.org/2000/svg" width="512" height="512" viewBox="0 0 512 512">
  <defs>
    <mask id="m">
      <rect width="512" height="512" fill="white"/>
      <circle cx="110" cy="238" r="168" fill="black"/>
    </mask>
  </defs>
  <g fill="#fde047" stroke="#1a1b26" stroke-width="2">
    <path d="M 96 84 l 3 8 9-1-6 7 6 7-9-1-3 8-3-8-9 1 6-7-6-7 9 1 z"/>
    <path d="M 402 66 l 3 8 9-1-6 7 6 7-9-1-3 8-3-8-9 1 6-7-6-7 9 1 z"/>
    <path d="M 66 296 l 2 6 7-1-5 6 5 6-7-1-2 6-2-6-7 1 5-6-5-6 7 1 z"/>
    <path d="M 428 340 l 2 6 7-1-5 6 5 6-7-1-2 6-2-6-7 1 5-6-5-6 7 1 z"/>
    <path d="M 150 396 l 2 5 6-1-4 5 4 5-6-1-2 5-2-5-6 1 4-5-4-5 6 1 z"/>
  </g>
  <!-- moon: full circle punched on the left -> thick crescent on right -->
  <circle cx="205" cy="238" r="168" fill="#a5b4fc" stroke="#1a1b26" stroke-width="8" mask="url(#m)"/>
  <!-- kanji 月 on the violet right side -->
  <path d="M302.6 192.0 L302.6 221.6 C302.6 235.3 301.4 252.6 288.0 264.2 C290.4 265.7 294.6 269.8 296.2 272.0 C304.4 265.0 308.8 255.1 311.1 245.1 L348.8 245.1 L348.8 258.1 C348.8 260.0 348.1 260.7 346.0 260.7 C344.0 260.7 336.7 260.8 330.5 260.4 C332.2 263.4 334.3 268.6 334.9 271.7 C344.0 271.7 350.2 271.6 354.4 269.7 C358.4 267.9 360.0 264.7 360.0 258.3 L360.0 192.0 Z M313.5 202.5 L348.8 202.5 L348.8 213.4 L313.5 213.4 Z M313.5 223.7 L348.8 223.7 L348.8 234.6 L312.8 234.6 C313.2 230.8 313.4 227.1 313.5 223.7 Z" fill="#ffffff" stroke="#1a1b26" stroke-width="11" stroke-linejoin="round" stroke-linecap="round" paint-order="stroke fill"/>
</svg>
